<?xml version="1.0" encoding="utf-8"?>
<!-- Generator: Adobe Illustrator 15.1.0, SVG Export Plug-In . SVG Version: 6.00 Build 0)  -->
<!DOCTYPE svg PUBLIC "-//W3C//DTD SVG 1.1//EN" "http://www.w3.org/Graphics/SVG/1.1/DTD/svg11.dtd">
<svg version="1.1" id="Layer_1" xmlns="http://www.w3.org/2000/svg" xmlns:xlink="http://www.w3.org/1999/xlink" x="0px" y="0px"
	 width="191px" height="226px" viewBox="0 0 191 226" enable-background="new 0 0 191 226" xml:space="preserve">
<title>ICON/grapes@3x</title>
<desc>Created with Sketch.</desc>
<g id="Page-1">
	<g id="Search" transform="translate(-92.000000, -245.000000)">
		<g id="ICON_x2F_grapes" transform="translate(92.000000, 245.000000)">
			<path fill="#FFFFFF" d="M154.496,105.509c-12.573,0-22.804-10.314-22.804-22.968c0-12.659,10.23-22.963,22.804-22.963
				c12.569,0,22.8,10.304,22.8,22.963C177.296,95.195,167.065,105.509,154.496,105.509 M124.708,159.307
				c-12.569,0-22.804-10.305-22.804-22.975c0-12.654,10.234-22.958,22.804-22.958c12.579,0,22.804,10.303,22.804,22.958
				C147.512,149.002,137.287,159.307,124.708,159.307 M95.007,211.938c-12.574,0-22.804-10.314-22.804-22.973
				c0-12.665,10.23-22.969,22.804-22.969c12.569,0,22.799,10.304,22.799,22.969C117.807,201.623,107.576,211.938,95.007,211.938
				 M64.15,159.307c-12.574,0-22.804-10.305-22.804-22.975c0-12.654,10.23-22.958,22.804-22.958
				c12.574,0,22.805,10.303,22.805,22.958C86.955,149.002,76.725,159.307,64.15,159.307 M95.007,59.578
				c12.569,0,22.799,10.304,22.799,22.963c0,12.654-10.23,22.968-22.799,22.968c-12.574,0-22.804-10.314-22.804-22.968
				C72.203,69.882,82.434,59.578,95.007,59.578 M190.586,82.541c0-20.044-16.188-36.354-36.09-36.354
				c-11.262,0-21.694,5.212-28.616,14.289l-1.125,1.478l-1.142-1.478c-6.916-9.077-17.338-14.289-28.606-14.289
				c-19.9,0-36.088,16.31-36.088,36.354l-0.073,1.436c-0.736,11.996-10.661,21.532-22.752,21.532
				c-12.579,0-22.814-10.314-22.814-22.968c0-12.173,9.468-22.169,21.383-22.921V46.213C15.42,46.971,0,62.973,0,82.541
				c0,17.788,13.181,33.221,30.655,35.895l1.918,0.292l-0.845,1.755c-2.432,5.029-3.666,10.366-3.666,15.85
				c0,18.854,14.042,34.406,32.671,36.182l1.955,0.183l-0.783,1.828c-1.98,4.58-2.986,9.432-2.986,14.44
				c0,20.043,16.188,36.354,36.088,36.354c19.901,0,36.083-16.311,36.083-36.354c0-5.035-1.021-9.943-3.049-14.582l-0.772-1.754
				l1.902-0.246c18.035-2.256,31.635-17.751,31.635-36.051c0-5.395-1.197-10.658-3.557-15.604l-0.866-1.833l2.002-0.225
				C176.74,116.68,190.586,101.154,190.586,82.541 M108.681,23.919c5.211-5.713,12.206-9.458,19.808-10.607L127.062,0
				c-10.812,1.509-20.771,6.752-28.177,14.863c-5.019,5.504-8.69,12.205-10.681,19.49h14
				C103.739,30.447,105.917,26.948,108.681,23.919"/>
		</g>
	</g>
</g>
</svg>
